<svg xmlns="http://www.w3.org/2000/svg" width="305" height="75" viewBox="0 0 305 75">
    <path fill="#FFF464" fill-rule="evenodd" d="M98.14 16.026l-10.462-1.097-10.44-.266-11.114-5.385-10.17 3.159-8.502 12.173-12.494-9.975-6.178 17.773-12.704-7.387-12.751-1.37 2.268 12.665-5.016 17.1 14.51-3.141 9.44 5.574 10.787.509 10.19 2.69 11.75-7.674 10.164 1.497 8.965 13.479 10.507.74 11.27-10.706 10.407-1.004 10.056 7.024 10.423-.272L139.29 75l10.568-6.363 10.568 6.086 10.169-15.766 10.356-.366 10.379.077 10.73 5.074 9.893-7.02 10.415.183 9.953-3.867 10.518.899 11.529 6.004 9.874-4.325 11.765 3.262 5.968-15.777 8.806-3.202 13.498-3.583-16.824 1.81-6.546-5.686-6.831-11.583-10.69.118-11.141 3.713-10.256-.232-8.873-11.371-10.14-3.35-10.643 1.605-9.868-8.487-11.067 9.653-10.41.35L170.867 2.73l-10.513.472-10.496 2.075-10.31 13.16-10.58-10.703-10.635-4.743L107.659.27z"/>
</svg>
