<svg xmlns="http://www.w3.org/2000/svg" xmlns:xlink="http://www.w3.org/1999/xlink" width="357" height="150" viewBox="0 0 357 150">
    <defs>
        <path id="a" d="M0 .242h24.994v34.331H0z"/>
        <path id="c" d="M.162.086h188.61V39.76H.163z"/>
        <path id="e" d="M0 149.699h356.116V.055H0z"/>
    </defs>
    <g fill="none" fill-rule="evenodd">
        <path fill="#FFF464" d="M38.23 120.391h317.886V.301H38.231z"/>
        <g transform="translate(0 .247)">
            <path fill="#322F31" d="M11.893 34.86H6.365v11.753h5.388c4.088 0 8.502-1.997 8.502-6.086 0-3.763-4.414-5.668-8.362-5.668m-.418 17.84H0V18.367h23.6v6.04H6.365v4.367h5.11c8.92 0 15.098 3.391 15.098 11.753 0 8.223-5.064 12.172-15.098 12.172M49.628 52.699V27.752L35.273 52.699h-7.108V18.367h6.365v24.994l14.215-24.994h7.248V52.7zM74.713 53.303c-12.404 0-15.702-10.546-15.702-10.546h6.318c.79 1.672 3.298 4.46 9.152 4.46 5.296 0 8.27-1.812 8.27-4.97 0-3.067-2.463-4.368-6.412-4.368l-5.25-.046v-6.55h5.204c2.927 0 4.46-1.209 4.46-3.67 0-2.045-3.113-3.485-6.133-3.485-5.25 0-6.922 1.719-7.897 3.53h-6.365s2.23-9.894 13.937-9.894c7.247 0 12.822 4.041 12.822 9.29 0 3.206-1.022 6.644-3.81 7.62 3.438.557 5.854 3.81 5.854 8.037 0 5.25-3.716 10.592-14.448 10.592M111.05 52.699V38.297H98.786V52.7H92.42V18.367h6.365v13.844h12.264V18.367h6.365V52.7zM123.188 52.699V18.367h21.695v6.086h-15.33v8.084h14.82v6.086h-14.82v7.99h15.33v6.086zM164.357 53.303c-10.034 0-18.071-7.99-18.071-17.886 0-9.71 7.944-17.653 17.653-17.653 7.062 0 13.24 3.809 16.26 10.452h-7.108c-2.323-3.02-5.017-4.32-9.013-4.32-6.55 0-11.381 5.11-11.381 11.567 0 6.412 5.203 11.707 11.52 11.707 3.3 0 5.715-1.115 8.503-4.041h7.479c-2.695 6.271-8.827 10.174-15.842 10.174"/>
            <g transform="translate(0 64.458)">
                <mask id="b" fill="#fff">
                    <use xlink:href="#a"/>
                </mask>
                <path fill="#322F31" d="M18.63 34.573V20.171H6.363v14.402H0V.242h6.364v13.844H18.63V.242h6.365v34.331z" mask="url(#b)"/>
            </g>
            <path fill="#322F31" d="M30.767 99.03V64.7h21.695v6.085h-15.33v8.084H51.95v6.086H37.13v7.99h15.33v6.086zM66.635 84.165h-4.46v8.78h4.46c4.46 0 6.411-1.254 6.411-4.228 0-3.066-1.998-4.552-6.41-4.552m0-13.24h-4.46v7.014h4.46c2.461 0 4.412-1.068 4.412-3.53 0-2.462-1.95-3.484-4.413-3.484m0 28.106H55.811V64.699h10.824c6.83 0 10.778 2.834 10.778 9.152 0 3.206-1.069 5.947-3.252 6.876 2.183.65 5.296 2.694 5.296 8.083 0 6.69-4.553 10.22-12.822 10.22M95.892 73.665l-3.67 10.407h7.34l-3.67-10.407zm9.895 25.366l-3.67-8.873H89.9l-3.81 8.873h-7.014l14.308-34.332h5.018l14.401 34.332h-7.015zM140.22 99.03l-10.174-26.108-9.663 26.109h-6.272l13.287-34.332h5.203l13.38 34.332zM168.455 70.785h-5.39c-4.18 0-8.5 2.37-8.5 6.55 0 3.763 4.32 6.133 8.361 6.133h5.529V70.785zm0 28.246v-9.477h-5.11l-7.851 9.477h-7.852l9.106-10.36c-5.25-1.533-8.502-5.25-8.502-11.335 0-8.223 5.064-12.637 15.098-12.637h11.475v34.332h-6.364zM178.711 99.03V64.7h6.365v28.245h8.733V64.699h6.365v28.246h8.734V64.699h5.9v34.332zM237.398 99.03L226.76 83.933v15.099h-6.365V64.699h6.365v14.82l10.638-14.82h7.294l-12.543 16.864 12.543 17.468zM262.962 73.665l-3.67 10.407h7.34l-3.67-10.407zm9.895 25.366l-3.67-8.873H256.97l-3.81 8.873h-7.014l14.308-34.332h5.018l14.401 34.332h-7.015z"/>
            <g transform="translate(115.964 109.94)">
                <mask id="d" fill="#fff">
                    <use xlink:href="#c"/>
                </mask>
                <path fill="#322F31" d="M188.773 20.503L2.27 39.759.162 19.343 186.665.086z" mask="url(#d)"/>
            </g>
            <path fill="#FEFEFE" d="M124.786 134.255l6.623-.684.82 7.94-1.746.18-.658-6.363-3.13.323.657 6.363-1.747.18zM139.985 136.698c-.14-1.362-1.256-2.392-2.662-2.247-1.407.145-2.268 1.357-2.125 2.74.14 1.362 1.256 2.393 2.662 2.248 1.407-.145 2.268-1.358 2.125-2.741m-6.613.682c-.233-2.257 1.357-4.29 3.807-4.542 2.45-.253 4.396 1.391 4.632 3.671.233 2.257-1.357 4.29-3.807 4.543-2.45.253-4.396-1.392-4.632-3.672M143.012 136.385c-.233-2.257 1.277-4.281 3.716-4.533 1.497-.155 2.395.326 3.207.975l-.92 1.31c-.669-.492-1.225-.767-2.132-.673-1.338.138-2.188 1.349-2.045 2.733.14 1.36 1.2 2.398 2.56 2.257.908-.093 1.426-.514 1.991-1.145l1.235 1.076c-.727.957-1.585 1.528-3.116 1.685-2.337.242-4.258-1.382-4.496-3.685M157.768 134.862c-.14-1.362-1.256-2.392-2.663-2.247-1.406.145-2.267 1.357-2.124 2.741.14 1.361 1.255 2.392 2.662 2.247 1.407-.145 2.268-1.358 2.125-2.741m-6.613.683c-.233-2.258 1.357-4.29 3.807-4.543 2.45-.253 4.396 1.391 4.631 3.671.234 2.257-1.356 4.29-3.806 4.543-2.45.253-4.397-1.392-4.632-3.671M162.939 134.775l.201 1.951 1.928-.2c.817-.083 1.181-.442 1.11-1.134-.063-.612-.495-.9-1.323-.815l-1.916.198zm-.15-1.452l2.098-.217c1.793-.185 2.891.688 3.045 2.174.167 1.622-.863 2.634-2.7 2.823l-3.676.38-.82-7.94 6.091-.629.163 1.577-4.344.448.143 1.384zM176.47 136.943l-1.724.178-.537-5.206-2.933 5.564-1.645.17-.82-7.94 1.724-.178.538 5.206 2.956-5.566 1.622-.168zM177.555 128.807l5.989-.619.16 1.554-4.253.44.166 1.61 3.743-.387.16 1.554-3.742.387.172 1.667 4.31-.445.16 1.554-6.045.624zM188.556 127.67l6.623-.683.82 7.94-1.746.18-.658-6.363-3.13.323.657 6.363-1.746.18zM203.755 130.114c-.14-1.362-1.256-2.392-2.662-2.247-1.407.145-2.267 1.357-2.125 2.741.141 1.36 1.256 2.392 2.663 2.247 1.406-.145 2.267-1.358 2.124-2.741m-6.613.683c-.233-2.258 1.357-4.29 3.807-4.543 2.45-.253 4.397 1.391 4.632 3.671.233 2.257-1.356 4.29-3.807 4.543-2.45.253-4.396-1.392-4.632-3.671M214.565 131.462c.771-.08 1.208-.4 1.145-1.012-.055-.533-.486-.821-1.382-.729l-2.02.209.181 1.747 2.076-.215zm-.796-3.15c.772-.08 1.234-.38 1.17-.992-.054-.522-.492-.775-1.23-.699l-1.724.178.174 1.679 1.61-.166zm-3.643-2.868l3.686-.38c.908-.095 1.648.08 2.149.488.4.325.627.749.686 1.316.092.896-.332 1.444-.867 1.82.955.258 1.577.732 1.69 1.82.15 1.453-.955 2.3-2.747 2.485l-3.777.39-.82-7.939zM225.54 123.852l1.746-.18.82 7.94-1.747.18-.82-7.94zm-5.046 4.763l.224 2.166 1.554-.16c.862-.09 1.266-.51 1.19-1.246-.07-.67-.552-1.01-1.425-.92l-1.543.16zm-2.18-4.017l1.747-.18.278 2.7 1.69-.175c1.838-.19 3.01.72 3.17 2.275.169 1.633-.882 2.785-2.741 2.977l-3.324.343-.82-7.94zM234.536 130.948l-.218-2.11-1.172-1.025-1.9 3.474-2.087.216 2.677-4.828-3.383-3.123 2.075-.215 3.57 3.38-.382-3.709 1.735-.18.383 3.71 2.804-4.038 2.076-.214-2.674 3.749 3.607 4.178-2.087.216-2.58-3.012-.927 1.242.218 2.11zM249.54 129.399l-1.724.178-.537-5.206-2.934 5.564-1.645.17-.82-7.94 1.725-.178.537 5.206 2.956-5.567 1.622-.167zM255.063 127.281c.772-.08 1.209-.4 1.146-1.012-.056-.534-.487-.822-1.383-.729l-2.019.208.18 1.747 2.076-.214zm-.795-3.15c.771-.08 1.233-.38 1.17-.993-.054-.521-.493-.774-1.23-.698l-1.724.178.174 1.679 1.61-.166zm-3.643-2.869l3.686-.38c.907-.094 1.648.082 2.148.489.4.325.628.749.686 1.316.093.896-.332 1.444-.866 1.82.955.258 1.577.732 1.69 1.82.15 1.452-.955 2.3-2.748 2.485l-3.777.39-.82-7.94zM263.622 124.586l-1.32-2.466-.79 2.684 2.11-.218zm-2.32-4.484l1.611-.166 4.228 7.645-1.826.189-.91-1.706-3.357.347-.542 1.856-1.78.183 2.576-8.348zM267.545 119.515l1.747-.18.325 3.142 3.221-.333-.324-3.142 1.746-.18.82 7.94-1.747.18-.329-3.187-3.221.333.329 3.187-1.747.18zM283.824 125.859l-1.724.178-.538-5.206-2.933 5.564-1.645.17-.82-7.94 1.725-.177.537 5.206 2.956-5.567 1.622-.168zM294.04 120.792c-.144-1.395-1.109-2.419-2.334-2.292-1.225.126-1.942 1.29-1.794 2.718.145 1.406 1.1 2.431 2.336 2.304 1.224-.126 1.94-1.301 1.792-2.73m-5.808 1.367l-1.089.113.332 3.21-1.747.18-.82-7.939 1.747-.18.327 3.164 1.1-.114c.135-1.916 1.474-3.488 3.482-3.695 2.268-.234 4.042 1.405 4.28 3.708.235 2.28-1.175 4.27-3.455 4.506-2.03.21-3.651-1.056-4.157-2.953"/>
            <path fill="#322F31" d="M286.786 107.384l7.984-26.662 10.154 7.852z"/>
            <path fill="#322F31" d="M318.286 66.75L310.3 93.413l-10.154-7.851z"/>
            <mask id="f" fill="#fff">
                <use xlink:href="#e"/>
            </mask>
            <path fill="#322F31" d="M184.946 38.623h12.143v-6.086h-12.143z" mask="url(#f)"/>
        </g>
    </g>
</svg>
