<svg xmlns="http://www.w3.org/2000/svg" width="247" height="477" viewBox="0 0 247 477">
    <g fill="none" fill-rule="evenodd">
        <path fill="#322F31" d="M205.303 194.598c0 43.715-35.438 79.153-79.153 79.153-43.716 0-79.154-35.438-79.154-79.153 0-43.716 35.438-79.153 79.154-79.153 43.715 0 79.153 35.437 79.153 79.153"/>
        <path fill="#322F31" d="M246.992 355.836c0 66.739-54.104 120.843-120.843 120.843-66.74 0-120.843-54.104-120.843-120.843 0-66.74 54.103-120.843 120.843-120.843 66.74 0 120.843 54.103 120.843 120.843"/>
        <path fill="#322F31" d="M46.996 283.172c0 12.948-10.497 23.445-23.444 23.445-12.949 0-23.445-10.497-23.445-23.445 0-12.947 10.496-23.444 23.445-23.444 12.947 0 23.444 10.497 23.444 23.444M246.992 273.75c0 12.949-10.496 23.445-23.444 23.445-12.949 0-23.445-10.496-23.445-23.444 0-12.948 10.496-23.444 23.445-23.444 12.948 0 23.444 10.496 23.444 23.444"/>
        <path fill="#FEFEFE" d="M184.923 194.533c0 33.012-26.762 59.773-59.773 59.773-33.012 0-59.774-26.76-59.774-59.773 0-33.013 26.762-59.773 59.774-59.773 33.01 0 59.773 26.76 59.773 59.773"/>
        <path fill="#322F31" d="M126.988 181.89c0 14.72-11.934 26.654-26.654 26.654S73.68 196.61 73.68 181.89s11.934-26.653 26.654-26.653 26.654 11.932 26.654 26.653M172.477 190.533c0 11.684-9.473 21.155-21.156 21.155-11.685 0-21.157-9.47-21.157-21.155s9.472-21.156 21.157-21.156c11.683 0 21.156 9.471 21.156 21.156M155.272 130.46l-14.213-5.327c-6.822-2.56-10.278-10.162-7.72-16.984 2.557-6.823 10.161-10.28 16.983-7.722l14.212 5.329c6.822 2.558 10.28 10.16 7.721 16.983-2.557 6.823-10.162 10.28-16.983 7.722M246.992 355.836c0 66.739-54.104 120.843-120.843 120.843-66.74 0-120.843-54.104-120.843-120.843 0-66.74 54.103-120.843 120.843-120.843 66.74 0 120.843 54.103 120.843 120.843"/>
        <path fill="#FEFEFE" d="M124.035 256.818l-6.659-9.377c-1.22-1.717.008-4.095 2.114-4.095h13.318c2.106 0 3.333 2.378 2.115 4.095l-6.659 9.377a2.594 2.594 0 0 1-4.229 0M124.035 273.267l-6.659-9.377c-1.22-1.717.008-4.095 2.114-4.095h13.318c2.106 0 3.333 2.377 2.115 4.094l-6.659 9.377a2.593 2.593 0 0 1-4.229 0M124.035 289.715l-6.659-9.377c-1.22-1.717.008-4.095 2.114-4.095h13.318c2.106 0 3.333 2.378 2.115 4.095l-6.659 9.377a2.593 2.593 0 0 1-4.229 0M124.035 306.163l-6.659-9.377c-1.22-1.717.008-4.095 2.114-4.095h13.318c2.106 0 3.333 2.378 2.115 4.095l-6.659 9.377a2.593 2.593 0 0 1-4.229 0M124.035 322.611l-6.659-9.377c-1.22-1.717.008-4.094 2.114-4.094h13.318c2.106 0 3.333 2.377 2.115 4.094l-6.659 9.377a2.593 2.593 0 0 1-4.229 0M124.035 339.06l-6.659-9.377c-1.22-1.717.008-4.094 2.114-4.094h13.318c2.106 0 3.333 2.377 2.115 4.094l-6.659 9.377a2.594 2.594 0 0 1-4.229 0M124.035 355.509l-6.659-9.378c-1.22-1.717.008-4.094 2.114-4.094h13.318c2.106 0 3.333 2.377 2.115 4.094l-6.659 9.378a2.594 2.594 0 0 1-4.229 0M124.035 371.957l-6.659-9.378c-1.22-1.717.008-4.094 2.114-4.094h13.318c2.106 0 3.333 2.377 2.115 4.094l-6.659 9.378a2.594 2.594 0 0 1-4.229 0"/>
        <path fill="#FEFEFE" d="M183.242 428.103c-6.542 6.304-17.032 7.28-26.912 8.258-10.105.724-19.598 1.451-29.342 1.393-9.745.058-19.238-.67-29.343-1.393-9.88-.979-20.37-1.953-26.912-8.258-6.29-5.88-7.145-18.732 2.648-31.557 9.315-12.576 29.28-25.125 53.607-24.698 24.326-.428 44.291 12.122 53.607 24.698 9.793 12.825 8.938 25.676 2.647 31.557"/>
        <path fill="#322F31" d="M160.185 449.839c-3.86 4.232-10.052 4.888-15.882 5.544-5.963.486-11.565.974-17.315.935-5.75.039-11.354-.45-17.317-.935-5.83-.656-12.02-1.312-15.882-5.544-3.71-3.947-4.216-12.575 1.563-21.184 5.498-8.442 17.28-16.867 31.636-16.58 14.355-.287 26.136 8.137 31.635 16.58 5.78 8.609 5.274 17.237 1.563 21.184"/>
        <path stroke="#FEFEFE" stroke-linecap="round" stroke-linejoin="round" stroke-width="5" d="M62.198 292.687c35.28-35.28 92.48-35.28 127.761 0M72.262 309.633c29.722-35.28 77.91-35.28 107.634 0M82.263 326.303c24.198-35.28 63.433-35.28 87.632 0M93.108 342.037c18.21-35.28 47.731-35.28 65.94 0"/>
        <path fill="#322F31" d="M157.06 38.317c.012.045.011.092.024.136l4.391 14.028-4.954-13.44.54-.724zm6.371-.069l2.723 12.442-3.889-12.424 1.377-1.637a2.493 2.493 0 0 0-.21 1.62zm62.863-14.275a2.498 2.498 0 0 0-3.368-1.073l-33.208 17.16a2.5 2.5 0 0 0-1.352 2.226l.108 43.27-1.972 1.02a2.48 2.48 0 0 0 .224-1.174l-2.76-43.176 30.805-19.473a2.501 2.501 0 0 0-2.672-4.227l-32.06 20.267a2.501 2.501 0 0 0-1.159 2.272l2.761 43.176-.438.277c.136-.37.197-.769.146-1.175l-5.392-42.82 29.577-22.374a2.5 2.5 0 0 0-3.016-3.988L171.79 37.407a2.5 2.5 0 0 0-.972 2.306l2.637 20.952-4.839-22.118 27.472-26.359a2.498 2.498 0 1 0-3.46-3.607l-27.944 26.81 22.712-26.998a2.499 2.499 0 0 0-.305-3.522 2.499 2.499 0 0 0-3.522.303L168.053 23.62l12.163-16.264a2.5 2.5 0 1 0-4.004-2.994l-24.508 32.771a2.498 2.498 0 0 0-.344 2.362l14.537 39.434-.606.81a2.488 2.488 0 0 0 .028-2.173l-17.83-37.263L168.351 5.61a2.501 2.501 0 0 0-4.285-2.576L142.508 38.88a2.503 2.503 0 0 0-.112 2.368l13.143 27.467-16.561-25.196 16.524-38.19a2.499 2.499 0 0 0-1.3-3.288 2.497 2.497 0 0 0-3.288 1.3l-17.06 39.43a2.497 2.497 0 0 0 .204 2.366l2.064 3.14-3.3-3.916 12.622-40.44a2.5 2.5 0 0 0-4.774-1.492l-13.03 41.75a2.503 2.503 0 0 0 .475 2.357l25.151 29.844-8.89 28.486-5.015 8.338a2.5 2.5 0 0 0 .441 3.12l-.23.532a2.499 2.499 0 0 0 2.293 3.494c.391 0 .765-.114 1.111-.287.02 0 .037.004.056.004a2.503 2.503 0 0 0 2.385-1.756l1.73-5.537a2.474 2.474 0 0 0 1.288-.803l3.13-3.72a2.49 2.49 0 0 0 1.943-.311l2.754-1.74c.438.333.962.534 1.511.534.387 0 .778-.09 1.145-.28l33.207-17.158a2.499 2.499 0 0 0 1.353-2.226l-.108-43.27 31.851-16.459a2.498 2.498 0 0 0 1.073-3.368z"/>
    </g>
</svg>
