<svg xmlns="http://www.w3.org/2000/svg" viewBox="0 0 365.15 509.33"><defs><style>.cls-1{fill:#fff464;}.cls-2{fill:#271f11;}.cls-3{fill:#fff;}.cls-4,.cls-5{fill:none;stroke-linecap:round;stroke-linejoin:round;stroke-width:5px;}.cls-4{stroke:#fff;}.cls-5{stroke:#201600;}</style></defs><title>Layer 1</title><g id="Слой_2" data-name="Слой 2"><g id="Layer_1" data-name="Layer 1"><polygon class="cls-1" points="361.28 470.64 347.78 474.23 338.98 477.43 333.01 493.2 321.24 489.94 311.37 494.26 299.84 488.26 289.32 487.36 279.37 491.23 268.95 491.05 259.06 498.07 248.33 492.99 237.95 492.92 227.59 493.28 217.43 509.05 206.86 502.96 196.29 509.33 186.05 496.46 175.62 496.73 165.57 489.71 155.16 490.71 143.89 501.42 133.38 500.68 124.42 487.2 114.25 485.7 102.5 493.37 92.31 490.68 81.53 490.18 72.09 484.6 57.58 487.74 62.59 470.64 60.33 457.98 73.08 459.35 85.78 466.73 91.96 448.96 104.45 458.94 112.95 446.76 123.12 443.6 134.24 448.99 144.68 449.25 155.14 450.35 164.66 434.6 175.33 437.32 185.97 442.06 196.55 452.76 206.86 439.6 217.35 437.53 227.87 437.06 237.99 447.18 248.4 446.83 259.47 437.18 269.33 445.67 279.98 444.06 290.12 447.41 298.99 458.78 309.25 459.01 320.39 455.3 331.08 455.18 337.91 466.77 344.46 472.45 361.28 470.64"/><circle class="cls-2" cx="179.15" cy="193.92" r="79.15"/><circle class="cls-2" cx="179.15" cy="355.16" r="120.84"/><circle class="cls-2" cx="76.55" cy="282.5" r="23.44"/><circle class="cls-2" cx="276.55" cy="273.08" r="23.44"/><circle class="cls-3" cx="178.15" cy="193.86" r="59.77"/><circle class="cls-2" cx="153.33" cy="181.22" r="26.65"/><circle class="cls-2" cx="204.32" cy="189.86" r="21.16"/><rect class="cls-2" x="185.02" y="101.58" width="41.56" height="26.38" rx="13.19" transform="translate(53.39 -64.94) rotate(20.55)"/><circle class="cls-2" cx="179.15" cy="355.16" r="120.84"/><path class="cls-3" d="M177,256.14l-6.66-9.37a2.59,2.59,0,0,1,2.11-4.1h13.32a2.6,2.6,0,0,1,2.11,4.1l-6.66,9.37A2.58,2.58,0,0,1,177,256.14Z"/><path class="cls-3" d="M177,272.59l-6.66-9.38a2.59,2.59,0,0,1,2.11-4.09h13.32a2.59,2.59,0,0,1,2.11,4.09l-6.66,9.38A2.58,2.58,0,0,1,177,272.59Z"/><path class="cls-3" d="M177,289l-6.66-9.38a2.59,2.59,0,0,1,2.11-4.09h13.32a2.59,2.59,0,0,1,2.11,4.09L181.26,289A2.58,2.58,0,0,1,177,289Z"/><path class="cls-3" d="M177,305.49l-6.66-9.38a2.59,2.59,0,0,1,2.11-4.09h13.32a2.59,2.59,0,0,1,2.11,4.09l-6.66,9.38A2.59,2.59,0,0,1,177,305.49Z"/><path class="cls-3" d="M177,321.94l-6.66-9.38a2.59,2.59,0,0,1,2.11-4.09h13.32a2.59,2.59,0,0,1,2.11,4.09l-6.66,9.38A2.59,2.59,0,0,1,177,321.94Z"/><path class="cls-3" d="M177,338.39,170.38,329a2.59,2.59,0,0,1,2.11-4.1h13.32a2.6,2.6,0,0,1,2.11,4.1l-6.66,9.38A2.59,2.59,0,0,1,177,338.39Z"/><path class="cls-3" d="M177,354.83l-6.66-9.37a2.59,2.59,0,0,1,2.11-4.1h13.32a2.6,2.6,0,0,1,2.11,4.1l-6.66,9.37A2.58,2.58,0,0,1,177,354.83Z"/><path class="cls-3" d="M177,371.28l-6.66-9.38a2.59,2.59,0,0,1,2.11-4.09h13.32a2.59,2.59,0,0,1,2.11,4.09l-6.66,9.38A2.58,2.58,0,0,1,177,371.28Z"/><path class="cls-3" d="M236.24,427.43c-6.54,6.3-17,7.28-26.91,8.26-10.1.72-19.6,1.45-29.34,1.39s-19.24-.67-29.34-1.39c-9.88-1-20.37-2-26.92-8.26-6.29-5.88-7.14-18.73,2.65-31.56,9.32-12.57,29.28-25.12,53.61-24.7,24.33-.42,44.29,12.13,53.61,24.7C243.39,408.7,242.53,421.55,236.24,427.43Z"/><path class="cls-2" d="M213.19,449.16c-3.86,4.24-10.06,4.89-15.89,5.55-6,.48-11.56,1-17.31.93s-11.35-.45-17.32-.93c-5.83-.66-12-1.31-15.88-5.55-3.71-3.94-4.22-12.57,1.56-21.18a38.47,38.47,0,0,1,63.27,0C217.4,436.59,216.9,445.22,213.19,449.16Z"/><polygon class="cls-2" points="253.47 135.14 277.45 86.16 294.56 104.59 253.47 135.14"/><polygon class="cls-2" points="327.38 66.68 303.4 115.66 286.29 97.23 327.38 66.68"/><polygon class="cls-2" points="275.38 169.29 311.81 128.7 323.25 151.1 275.38 169.29"/><polygon class="cls-2" points="365.15 123.58 328.73 164.17 317.29 141.77 365.15 123.58"/><polygon class="cls-2" points="111.68 135.14 87.71 86.16 70.59 104.59 111.68 135.14"/><polygon class="cls-2" points="37.77 66.68 61.75 115.66 78.86 97.23 37.77 66.68"/><polygon class="cls-2" points="89.77 169.29 53.35 128.7 41.91 151.1 89.77 169.29"/><polygon class="cls-2" points="0 123.58 36.42 164.17 47.86 141.77 0 123.58"/><path class="cls-4" d="M115.2,292A90.34,90.34,0,0,1,243,292"/><path class="cls-4" d="M125.26,309c29.72-35.28,77.91-35.28,107.64,0"/><path class="cls-4" d="M135.26,325.63c24.2-35.28,63.44-35.28,87.64,0"/><path class="cls-4" d="M146.11,341.36c18.21-35.28,47.73-35.28,65.94,0"/><polyline class="cls-5" points="196.03 116.89 209.06 75.14 183.03 44.25 196.06 2.5"/><polyline class="cls-5" points="194.87 117.18 211.93 77.75 189.15 43.09 206.21 3.66"/><polyline class="cls-5" points="194.5 113.82 216.06 77.97 197.65 39.49 219.21 3.65"/><polyline class="cls-5" points="197.2 111.44 221.71 78.67 206.71 37.96 231.21 5.18"/><polyline class="cls-5" points="199.52 109.69 225.53 78.77 212.47 37.03 238.48 6.11"/><polyline class="cls-5" points="199.85 107.59 228.33 80.26 218.88 37.04 247.36 9.71"/><polyline class="cls-5" points="201.14 106.23 231.87 82.98 226.3 38.73 257.03 15.48"/><polyline class="cls-5" points="205.17 105.15 237.23 84.89 234.38 40.23 266.44 19.97"/><polyline class="cls-5" points="210.77 103.56 243.98 86.4 243.87 41.6 277.07 24.45"/></g></g></svg>