<svg xmlns="http://www.w3.org/2000/svg" viewBox="0 0 1613.21 2241.6"><defs><style>.cls-1{fill:#fff464;}.cls-2{fill:#271f11;}.cls-3{fill:#fff;}.cls-4,.cls-5{fill:none;stroke-linecap:round;stroke-linejoin:round;stroke-width:5px;}.cls-4{stroke:#fff;}.cls-5{stroke:#201600;}</style></defs><title>Layer 1</title><g id="Слой_2" data-name="Слой 2"><g id="Layer_1" data-name="Layer 1"><polygon class="cls-1" points="1596.09 2070.7 1536.46 2086.53 1497.55 2100.67 1471.19 2170.37 1419.21 2155.96 1375.59 2175.06 1324.65 2148.54 1278.19 2144.57 1234.22 2161.65 1188.2 2160.84 1144.5 2191.86 1097.09 2169.44 1051.24 2169.1 1005.49 2170.72 960.56 2240.37 913.87 2213.49 867.19 2241.6 821.93 2184.75 775.88 2185.95 731.46 2154.92 685.48 2159.35 635.69 2206.65 589.27 2203.38 549.66 2143.83 504.76 2137.21 452.86 2171.13 407.83 2159.24 360.18 2156.99 318.48 2132.36 254.37 2146.24 276.53 2070.7 266.51 2014.74 322.84 2020.79 378.96 2053.43 406.26 1974.91 461.46 2018.98 499.02 1965.2 543.95 1951.24 593.04 1975.03 639.17 1976.21 685.39 1981.05 727.44 1911.45 774.6 1923.47 821.59 1944.42 868.33 1991.7 913.87 1933.57 960.25 1924.4 1006.69 1922.31 1051.41 1967.06 1097.4 1965.5 1146.3 1922.86 1189.89 1960.36 1236.91 1953.26 1281.71 1968.06 1320.9 2018.3 1366.22 2019.32 1415.44 2002.92 1462.67 2002.4 1492.84 2053.57 1521.77 2078.7 1596.09 2070.7"/><circle class="cls-2" cx="791.46" cy="848.18" r="349.69"/><circle class="cls-2" cx="791.46" cy="1560.52" r="533.87"/><circle class="cls-2" cx="338.2" cy="1239.5" r="103.57"/><circle class="cls-2" cx="1221.76" cy="1197.88" r="103.57"/><circle class="cls-3" cx="787.04" cy="847.9" r="264.07"/><circle class="cls-2" cx="677.41" cy="792.04" r="117.75"/><circle class="cls-2" cx="902.67" cy="830.23" r="93.46"/><rect class="cls-2" x="817.38" y="440.21" width="183.62" height="116.56" rx="13.19" transform="translate(232.86 -287.45) rotate(20.55)"/><circle class="cls-2" cx="791.46" cy="1560.52" r="533.87"/><path class="cls-3" d="M782.12,1123.07l-29.42-41.43a11.46,11.46,0,0,1,9.34-18.09h58.84a11.45,11.45,0,0,1,9.34,18.09l-29.42,41.43A11.46,11.46,0,0,1,782.12,1123.07Z"/><path class="cls-3" d="M782.12,1195.74l-29.42-41.43a11.46,11.46,0,0,1,9.34-18.09h58.84a11.45,11.45,0,0,1,9.34,18.09l-29.42,41.43A11.46,11.46,0,0,1,782.12,1195.74Z"/><path class="cls-3" d="M782.12,1268.4,752.7,1227a11.46,11.46,0,0,1,9.34-18.09h58.84a11.45,11.45,0,0,1,9.34,18.09L800.8,1268.4A11.46,11.46,0,0,1,782.12,1268.4Z"/><path class="cls-3" d="M782.12,1341.07l-29.42-41.43a11.46,11.46,0,0,1,9.34-18.09h58.84a11.45,11.45,0,0,1,9.34,18.09l-29.42,41.43A11.46,11.46,0,0,1,782.12,1341.07Z"/><path class="cls-3" d="M782.12,1413.74l-29.42-41.43a11.46,11.46,0,0,1,9.34-18.09h58.84a11.45,11.45,0,0,1,9.34,18.09l-29.42,41.43A11.46,11.46,0,0,1,782.12,1413.74Z"/><path class="cls-3" d="M782.12,1486.4,752.7,1445a11.46,11.46,0,0,1,9.34-18.09h58.84a11.45,11.45,0,0,1,9.34,18.09L800.8,1486.4A11.46,11.46,0,0,1,782.12,1486.4Z"/><path class="cls-3" d="M782.12,1559.07l-29.42-41.43a11.45,11.45,0,0,1,9.34-18.08h58.84a11.45,11.45,0,0,1,9.34,18.08l-29.42,41.43A11.46,11.46,0,0,1,782.12,1559.07Z"/><path class="cls-3" d="M782.12,1631.74l-29.42-41.43a11.46,11.46,0,0,1,9.34-18.09h58.84a11.45,11.45,0,0,1,9.34,18.09l-29.42,41.43A11.46,11.46,0,0,1,782.12,1631.74Z"/><path class="cls-3" d="M1043.69,1879.79c-28.9,27.85-75.25,32.16-118.89,36.48-44.64,3.2-86.58,6.41-129.63,6.16-43,.25-85-3-129.63-6.16-43.65-4.32-90-8.63-118.9-36.48-27.79-26-31.57-82.76,11.7-139.41,41.15-55.57,129.36-111,236.83-109.12,107.47-1.89,195.67,53.55,236.83,109.12C1075.26,1797,1071.48,1853.81,1043.69,1879.79Z"/><path class="cls-2" d="M941.83,1975.81c-17.06,18.7-44.41,21.59-70.16,24.49-26.35,2.15-51.1,4.31-76.5,4.14-25.41.17-50.16-2-76.5-4.14-25.76-2.9-53.11-5.79-70.17-24.49-16.4-17.44-18.63-55.55,6.91-93.58,24.28-37.3,76.33-74.52,139.76-73.25,63.42-1.27,115.47,36,139.76,73.25C960.46,1920.26,958.23,1958.37,941.83,1975.81Z"/><polygon class="cls-2" points="1119.82 588.48 1225.73 372.09 1301.34 453.51 1119.82 588.48"/><polygon class="cls-2" points="1446.33 286.05 1340.41 502.43 1264.81 421.02 1446.33 286.05"/><polygon class="cls-2" points="1216.62 739.37 1377.52 560.05 1428.06 659 1216.62 739.37"/><polygon class="cls-2" points="1613.21 537.41 1452.31 716.72 1401.77 617.78 1613.21 537.41"/><polygon class="cls-2" points="493.39 588.48 387.48 372.09 311.87 453.51 493.39 588.48"/><polygon class="cls-2" points="166.89 286.05 272.8 502.43 348.41 421.02 166.89 286.05"/><polygon class="cls-2" points="396.59 739.37 235.69 560.05 185.15 659 396.59 739.37"/><polygon class="cls-2" points="0 537.41 160.9 716.72 211.44 617.78 0 537.41"/><path class="cls-4" d="M508.93,1281.54c155.87-155.87,408.57-155.87,564.44,0"/><path class="cls-4" d="M553.39,1356.4c131.31-155.87,344.21-155.87,475.52,0"/><path class="cls-4" d="M597.57,1430c106.91-155.86,280.25-155.86,387.16,0"/><path class="cls-4" d="M645.49,1499.56c80.45-155.87,210.87-155.87,291.32,0"/><polyline class="cls-5" points="866.04 507.87 923.61 323.43 808.6 186.95 866.16 2.5"/><polyline class="cls-5" points="860.9 509.12 936.27 334.93 835.63 181.82 911.01 7.63"/><polyline class="cls-5" points="859.3 494.29 954.54 335.92 873.2 165.94 968.45 7.57"/><polyline class="cls-5" points="871.22 483.77 979.5 338.99 913.2 159.14 1021.48 14.36"/><polyline class="cls-5" points="881.47 476.05 996.38 339.44 938.67 155.06 1053.59 18.45"/><polyline class="cls-5" points="882.9 466.77 1008.74 346.04 966.96 155.09 1092.8 34.35"/><polyline class="cls-5" points="888.62 460.76 1024.37 358.06 999.76 162.55 1135.52 59.84"/><polyline class="cls-5" points="906.43 456.01 1048.06 366.48 1035.45 169.2 1177.08 79.66"/><polyline class="cls-5" points="931.17 448.97 1077.87 373.17 1077.38 175.26 1224.08 99.46"/></g></g></svg>